<svg xmlns="http://www.w3.org/2000/svg" xmlns:xlink="http://www.w3.org/1999/xlink" xml:space="preserve" version="1.1" style="shape-rendering:geometricPrecision; text-rendering:geometricPrecision; image-rendering:optimizeQuality; fill-rule:evenodd; clip-rule:evenodd" viewBox="709.1 1119.19 4196.17 1009.14">
 <defs>
  <style type="text/css">
   <![CDATA[
    .str0 {stroke:#F4F4F4;stroke-width:3;stroke-linejoin:bevel;stroke-miterlimit:2.61313}
    .fil0 {fill:#FEFEFE}
   ]]>
  </style>
 </defs>
 <g id="layer_x0020_1">
  <metadata id="CorelCorpID_0Corel-Layer"/>
  <path class="fil0 str0" d="M4360.4 2095.76c0,0 -115.96,-66.94 -115.96,-66.94 0,0 142.66,-247.09 142.66,-247.09 -5.89,-5.08 -11.59,-10.37 -17.09,-15.86 -56.58,-56.58 -91.59,-134.75 -91.59,-221.09 0,-86.34 35.03,-164.51 91.59,-221.09 56.6,-56.6 134.75,-91.58 221.09,-91.58 86.31,0 164.51,35.01 221.09,91.58 56.58,56.58 91.58,134.78 91.58,221.09 0,86.34 -35.03,164.51 -91.58,221.09 -56.58,56.6 -134.76,91.59 -221.09,91.59 -29.89,0 -58.79,-4.2 -86.16,-12.03 0,0 -144.54,250.35 -144.54,250.35zm361.74 -682.01c-33.54,-33.54 -79.87,-54.29 -131.05,-54.29 -51.17,0 -97.5,20.75 -131.04,54.29 -33.51,33.51 -54.26,79.85 -54.26,131.02 0,51.19 20.75,97.52 54.26,131.05 33.54,33.54 79.87,54.29 131.04,54.29 51.2,0 97.52,-20.77 131.05,-54.29 33.54,-33.52 54.26,-79.85 54.26,-131.05 0,-51.15 -20.75,-97.5 -54.26,-131.02zm-3436.49 318.5c-67.74,35.33 -146.81,53 -237.14,53 -99.04,0 -180.1,-29.97 -243.23,-89.92 -63.12,-59.95 -94.68,-137.98 -94.68,-234.11 0,-96.72 31.71,-174.76 95.11,-234.11 63.41,-59.35 142.89,-89.04 238.47,-89.04 47.5,0 92.37,7.38 134.64,22.15 42.28,14.78 76.43,34.59 102.5,59.52 0,0 -93.81,106.85 -93.81,106.85 -33.02,-38.22 -79.05,-57.34 -138.12,-57.34 -52.13,0 -95.28,18.25 -129.44,54.72 -34.18,36.5 -51.26,82.23 -51.26,137.26 0,57.91 16.51,104.65 49.52,140.28 33.02,35.61 79.05,53.44 138.12,53.44 36.48,0 67.47,-5.51 92.94,-16.51 0,0 0,-112.06 0,-112.06 0,0 -117.26,0 -117.26,0 0,0 0,-119.88 0,-119.88 0,0 253.67,0 253.67,0 0,0 0,325.75 0,325.75 0,0 -0.01,0 -0.01,0zm400.48 -403.92c0,0 -6.1,125.08 -6.1,125.08 -11,-2.89 -23.15,-4.33 -36.47,-4.33 -34.18,0 -59.65,10.57 -76.46,31.7 -16.78,21.14 -25.17,43.29 -25.17,66.44 0,0 0,222.4 0,222.4 0,0 -142.46,0 -142.46,0 0,0 0,-432.6 0,-432.6 0,0 137.26,0 137.26,0 0,0 0,62.54 0,62.54 0,0 1.74,0 1.74,0 11,-22.58 26.93,-40.67 47.8,-54.31 20.84,-13.59 44.02,-20.43 69.49,-20.43 13.89,0 24.03,1.15 30.4,3.48 0,0 -0.02,0.02 -0.02,0.02zm298.81 267.57c0,0 0,-14.76 0,-14.76 0,0 -18.25,0 -18.25,0 -88.61,0 -132.92,19.69 -132.92,59.06 0,15.06 6.1,26.2 18.25,33.45 12.18,7.25 26.64,10.87 43.44,10.87 28.39,0 50.39,-7.98 66.02,-23.91 15.63,-15.91 23.45,-37.48 23.45,-64.7 0,0 0.01,0 0.01,0zm-189.37 -122.5c0,0 -72.1,-77.32 -72.1,-77.32 51.54,-48.65 115.82,-72.97 192.84,-72.97 71.23,0 122.19,18.11 152.89,54.29 30.7,36.2 46.06,94.27 46.06,174.19 0,0 0,218.04 0,218.04 0,0 -130.31,0 -130.31,0 0,0 0,-46.06 0,-46.06 0,0 -2.59,0 -2.59,0 -10.43,17.38 -26.93,31.13 -49.52,41.27 -22.58,10.15 -46.91,15.2 -72.94,15.2 -25.49,0 -49.38,-3.9 -71.67,-11.71 -22.3,-7.85 -42.14,-22.46 -59.52,-43.89 -17.35,-21.43 -26.07,-48.07 -26.07,-79.91 0,-97.3 92.67,-145.96 277.99,-145.96 0,0 0,-6.95 0,-6.95 0,-20.26 -7.24,-35.76 -21.7,-46.49 -14.47,-10.7 -33.31,-16.07 -56.46,-16.07 -39.39,0 -75.01,14.77 -106.85,44.32 0,0 -0.06,0.04 -0.06,0.04zm863.48 -136.38c0,0 -170.24,432.6 -170.24,432.6 0,0 -153.76,0 -153.76,0 0,0 -170.27,-432.6 -170.27,-432.6 0,0 157.22,0 157.22,0 0,0 91.22,280.58 91.22,280.58 0,0 2.61,0 2.61,0 0,0 91.2,-280.58 91.2,-280.58 0,0 152.02,0 152.02,0zm209.35 -138.13c0,22.03 -7.98,40.55 -23.89,55.59 -15.93,15.06 -35.19,22.6 -57.78,22.6 -22.58,0 -41.81,-7.68 -57.77,-23.04 -15.91,-15.33 -23.89,-33.74 -23.89,-55.15 0,-20.84 7.98,-39.09 23.89,-54.72 15.93,-15.66 35.19,-23.48 57.77,-23.48 22.58,0 41.86,7.68 57.78,23.02 15.91,15.33 23.89,33.75 23.89,55.16 0,0 0,0.04 0,0.04zm-10.43 570.75c0,0 -142.48,0 -142.48,0 0,0 0,-432.6 0,-432.6 0,0 142.48,0 142.48,0 0,0 0,432.6 0,432.6zm399.59 -441.29c0,0 -6.07,125.08 -6.07,125.08 -11,-2.89 -23.15,-4.33 -36.5,-4.33 -34.18,0 -59.65,10.57 -76.43,31.7 -16.81,21.14 -25.19,43.29 -25.19,66.44 0,0 0,222.4 0,222.4 0,0 -142.46,0 -142.46,0 0,0 0,-432.6 0,-432.6 0,0 137.26,0 137.26,0 0,0 0,62.54 0,62.54 0,0 1.74,0 1.74,0 11,-22.58 26.92,-40.67 47.78,-54.31 20.84,-13.59 44.02,-20.43 69.49,-20.43 13.92,0 24.04,1.15 30.4,3.48 0,0 0,0.02 0,0.02zm298.83 267.56c0,0 0,-14.77 0,-14.77 0,0 -18.25,0 -18.25,0 -88.6,0 -132.92,19.7 -132.92,59.06 0,15.06 6.07,26.2 18.25,33.45 12.17,7.25 26.63,10.87 43.44,10.87 28.39,0 50.39,-7.98 66,-23.91 15.66,-15.91 23.48,-37.48 23.48,-64.7zm-189.39 -122.49c0,0 -72.08,-77.32 -72.08,-77.32 51.54,-48.65 115.82,-72.97 192.85,-72.97 71.23,0 122.19,18.11 152.89,54.29 30.7,36.2 46.03,94.26 46.03,174.19 0,0 0,218.04 0,218.04 0,0 -130.29,0 -130.29,0 0,0 0,-46.06 0,-46.06 0,0 -2.62,0 -2.62,0 -10.43,17.37 -26.91,31.13 -49.5,41.27 -22.58,10.15 -46.91,15.2 -72.97,15.2 -25.49,0 -49.36,-3.9 -71.67,-11.71 -22.28,-7.85 -42.14,-22.46 -59.49,-43.89 -17.35,-21.44 -26.07,-48.07 -26.07,-79.91 0,-97.3 92.64,-145.96 277.96,-145.96 0,0 0,-6.95 0,-6.95 0,-20.26 -7.22,-35.76 -21.7,-46.49 -14.47,-10.7 -33.31,-16.07 -56.46,-16.07 -39.39,0 -75.01,14.77 -106.86,44.31 0,0 -0.02,0.05 -0.02,0.05zm853.07 296.22c0,0 -143.33,0 -143.33,0 0,0 0,-236.3 0,-236.3 0,-60.8 -21.43,-91.22 -64.28,-91.22 -24.32,0 -43.13,8.96 -56.46,26.92 -13.32,17.95 -19.99,39.96 -19.99,66.02 0,0 0,234.55 0,234.55 0,0 -143.33,0 -143.33,0 0,0 0,-432.6 0,-432.6 0,0 138.11,0 138.11,0 0,0 0,59.93 0,59.93 0,0 1.74,0 1.74,0 10.43,-20.24 27.35,-37.35 50.82,-51.24 23.45,-13.89 49.66,-20.84 78.61,-20.84 53.88,0 93.67,17.24 119.44,51.7 25.77,34.46 38.68,76.29 38.68,125.54 0,0 0,267.56 0,267.56 0,0 0,-0.02 0,-0.02zm-2798.76 333.38c0,0 76.59,0 76.59,0 0,0 0,20.75 0,20.75 0,0 -98.51,0 -98.51,0 0,0 0,-164.97 0,-164.97 0,0 97.34,0 97.34,0 0,0 0,20.72 0,20.72 0,0 -75.43,0 -75.43,0 0,0 0,50.69 0,50.69 0,0 69.54,0 69.54,0 0,0 0,20.5 0,20.5 0,0 -69.54,0 -69.54,0 0,0 0,52.31 0,52.31zm486.8 20.75c0,0 -24.96,0 -24.96,0 0,0 -40.55,-65.07 -40.55,-65.07 0,0 -40.54,65.07 -40.54,65.07 0,0 -24.76,0 -24.76,0 0,0 53.02,-84.85 53.02,-84.85 0,0 -49.97,-80.12 -49.97,-80.12 0,0 24.76,0 24.76,0 0,0 37.46,60.11 37.46,60.11 0,0 37.48,-60.11 37.48,-60.11 0,0 24.76,0 24.76,0 0,0 -49.72,79.89 -49.72,79.89 0,0 53.02,85.08 53.02,85.08zm348.01 -164.97c15.24,0 27.93,5.06 38.05,15.2 10.13,10.14 15.2,22.74 15.2,37.83 0,14.93 -5.07,27.51 -15.2,37.71 -10.14,10.22 -22.81,15.31 -38.05,15.31 0,0 -37.94,0 -37.94,0 0,0 0,58.92 0,58.92 0,0 -21.92,0 -21.92,0 0,0 0,-164.97 0,-164.97 0,0 59.86,0 59.86,0zm0 85.56c9.1,0 16.64,-3.11 22.6,-9.33 5.98,-6.19 8.96,-13.93 8.96,-23.2 0,-9.42 -2.98,-17.19 -8.96,-23.34 -5.96,-6.15 -13.5,-9.2 -22.6,-9.2 0,0 -37.94,0 -37.94,0 0,0 0,65.07 0,65.07 0,0 37.94,0 37.94,0zm367.54 58.67c0,0 71.16,0 71.16,0 0,0 0,20.75 0,20.75 0,0 -93.07,0 -93.07,0 0,0 0,-164.97 0,-164.97 0,0 21.91,0 21.91,0 0,0 0,144.22 0,144.22zm485.51 -1.19c-16.57,16.64 -36.81,24.99 -60.7,24.99 -23.89,0 -44.07,-8.32 -60.57,-24.99 -16.51,-16.67 -24.76,-36.85 -24.76,-60.57 0,-23.89 8.25,-44.11 24.76,-60.68 16.51,-16.6 36.68,-24.88 60.57,-24.88 23.89,0 44.11,8.28 60.7,24.88 16.56,16.57 24.85,36.8 24.85,60.68 0,23.73 -8.3,43.9 -24.85,60.57zm-106.05 -14.98c12.18,12.34 27.3,18.5 45.35,18.5 18.07,0 33.2,-6.17 45.37,-18.5 12.18,-12.34 18.27,-27.54 18.27,-45.6 0,-18.22 -6.1,-33.49 -18.27,-45.85 -12.17,-12.34 -27.3,-18.5 -45.37,-18.5 -18.07,0 -33.17,6.16 -45.35,18.5 -12.18,12.34 -18.27,27.63 -18.27,45.85 0,18.07 6.1,33.27 18.27,45.6zm521.55 36.89c0,0 -37,-63.16 -37,-63.16 0,0 -38.88,0 -38.88,0 0,0 0,63.16 0,63.16 0,0 -21.94,0 -21.94,0 0,0 0,-164.97 0,-164.97 0,0 65.98,0 65.98,0 14.14,0 26.25,5 36.29,14.97 10.06,9.97 15.11,22.03 15.11,36.18 0,10.69 -3.19,20.43 -9.56,29.22 -6.37,8.78 -14.56,15.02 -24.62,18.61 0,0 38.88,65.98 38.88,65.98 0,0 -24.28,0 -24.28,0 0,0 0.03,0.01 0.03,0.01zm-75.86 -144.48c0,0 0,61.51 0,61.51 0,0 44.07,0 44.07,0 8.19,0 15.13,-3.01 20.86,-9.06 5.76,-6.06 8.62,-13.32 8.62,-21.82 0,-8.48 -2.86,-15.7 -8.62,-21.69 -5.73,-5.96 -12.68,-8.96 -20.86,-8.96 0,0 -44.07,0 -44.07,0 0,0 0,0.02 0,0.02zm410.44 123.72c0,0 76.59,0 76.59,0 0,0 0,20.75 0,20.75 0,0 -98.51,0 -98.51,0 0,0 0,-164.97 0,-164.97 0,0 97.34,0 97.34,0 0,0 0,20.72 0,20.72 0,0 -75.43,0 -75.43,0 0,0 0,50.69 0,50.69 0,0 69.51,0 69.51,0 0,0 0,20.5 0,20.5 0,0 -69.51,0 -69.51,0 0,0 0,52.31 0,52.31z"/>
 </g>
</svg>